<svg aria-hidden="true" style="width:0;height:0;position:absolute;overflow:hidden" xmlns="http://www.w3.org/2000/svg"><defs><symbol id="github" viewBox="0 0 24 28"><path d="M8.109 18.75c.031-.047.016-.141-.047-.203-.078-.063-.172-.078-.219-.031-.031.047-.016.141.047.203.078.063.172.078.219.031zm-.437-.641c-.047-.063-.125-.094-.187-.063-.047.031-.047.125 0 .187.063.078.141.109.187.078.047-.031.047-.125 0-.203zm-.641-.625c.016-.031-.016-.094-.078-.125-.047-.016-.109-.016-.125.031-.031.047 0 .094.063.125.063.016.125.016.141-.031zm.328.36c.031-.031.031-.109-.031-.156-.047-.063-.125-.078-.156-.047-.047.047-.031.109.016.172.047.047.125.078.172.031zm1.344 1.172c.016-.063-.047-.141-.141-.172s-.172 0-.203.063c-.016.063.047.141.141.172s.172 0 .203-.063zm.656.047c0-.063-.078-.125-.187-.125-.094 0-.156.063-.156.125s.078.125.172.125.172-.063.172-.125zm.61-.11c-.016-.063-.109-.094-.203-.078s-.156.078-.141.141.094.109.187.094.156-.094.156-.156zM20 14c0-4.422-3.578-8-8-8s-8 3.578-8 8c0 3.531 2.297 6.531 5.469 7.594.406.078.547-.172.547-.391 0-.187 0-.812-.016-1.484 0 0-2.219.484-2.688-.953 0 0-.359-.922-.891-1.156 0 0-.719-.5.063-.5 0 0 .781.063 1.219.828.703 1.234 1.875.875 2.328.672.078-.516.281-.875.516-1.078-1.781-.203-3.656-.891-3.656-3.953 0-.875.313-1.578.828-2.141-.078-.203-.359-1.016.078-2.125.672-.203 2.203.828 2.203.828.641-.187 1.313-.266 2-.266s1.359.078 2 .266c0 0 1.531-1.031 2.203-.828.438 1.109.156 1.922.078 2.125.516.562.828 1.266.828 2.141 0 3.078-1.875 3.75-3.656 3.953.281.25.547.734.547 1.484 0 1.062-.016 1.922-.016 2.188 0 .219.141.469.547.391C17.703 20.533 20 17.533 20 14.001zm4-7.5v15c0 2.484-2.016 4.5-4.5 4.5h-15A4.502 4.502 0 0 1 0 21.5v-15C0 4.016 2.016 2 4.5 2h15C21.984 2 24 4.016 24 6.5z"/></symbol><symbol id="close" viewBox="0 0 32 32"><path d="m30.721 6.774-9.197 9.253 9.197 9.198a.983.983 0 0 1 0 1.392l-4.176 4.175a.982.982 0 0 1-1.391 0l-9.182-9.182-9.127 9.182a.983.983 0 0 1-1.392 0l-4.175-4.175a.985.985 0 0 1 0-1.392l9.127-9.182-9.126-9.126a.985.985 0 0 1 0-1.392L5.454 1.35a.983.983 0 0 1 1.392 0l9.11 9.11 9.199-9.253a.982.982 0 0 1 1.391 0l4.176 4.175a.986.986 0 0 1-.001 1.392z"/></symbol><symbol id="like" viewBox="0 0 32 32"><path d="M23 2c-2.404 0-4.331.863-6.03 2.563l-.003.003h-.001L16 5.783l-.966-1.143-.003-.003h-.001C13.33 2.936 11.404 2 9 2s-4.664.936-6.364 2.636A8.945 8.945 0 0 0 0 11c0 2.402.935 4.662 2.633 6.361L14.58 29.408a1.998 1.998 0 0 0 2.84 0l11.946-12.047C31.064 15.662 32 13.403 32 11s-.937-4.664-2.636-6.364A8.94 8.94 0 0 0 23 2z"/></symbol></defs></svg>