<svg aria-hidden="true" style="width:0;height:0;position:absolute;overflow:hidden" xmlns="http://www.w3.org/2000/svg"><defs><symbol id="icon-arrow-left" viewBox="0 0 32 32"><path stroke-linejoin="round" stroke-linecap="round" stroke-width="2.667" d="M25.333 16H6.666M16 25.334l-9.333-9.333L16 6.668"/></symbol><symbol id="icon-arrow-right" viewBox="0 0 32 32"><path stroke-linejoin="round" stroke-linecap="round" stroke-width="2.667" d="M6.667 16h18.667M16 25.334l9.333-9.333L16 6.668"/></symbol><symbol id="icon-close" viewBox="0 0 32 32"><path stroke-width="2.133" d="m8.533 8.533 14.933 14.933M8.533 23.467 23.466 8.534"/></symbol><symbol id="icon-heart" viewBox="0 0 32 32"><path fill="#ff6b08" style="fill:var(--color1,#ff6b08)" d="m16 30.583-2.24-2.24C5.44 20.983 0 16.023 0 9.943c0-4.96 3.84-8.8 8.8-8.8 2.72 0 5.44 1.28 7.2 3.36 1.76-2.08 4.48-3.36 7.2-3.36 4.96 0 8.8 3.84 8.8 8.8 0 6.08-5.44 11.04-13.76 18.4L16 30.583z"/></symbol><symbol id="icon-logo" viewBox="0 0 32 32"><path fill="none" style="stroke:currentColor" stroke-linejoin="round" stroke-linecap="round" stroke-width="2.667" d="M26.427 2.667H5.574a2.907 2.907 0 0 0-2.907 2.907v20.853a2.907 2.907 0 0 0 2.907 2.907v0h20.853a2.907 2.907 0 0 0 2.907-2.907v0V5.574a2.907 2.907 0 0 0-2.907-2.907v0zm-17.094 0v26.667M22.667 2.667v26.667M2.667 16h26.667M2.667 9.333h6.667M2.667 22.667h6.667m13.333 0h6.667M22.667 9.333h6.667"/></symbol><symbol id="icon-search" viewBox="0 0 28 28"><path fill="none" style="stroke:currentColor" stroke-linejoin="round" stroke-linecap="round" stroke-width="2.667" d="M14.667 25.333c5.891 0 10.667-4.776 10.667-10.667S20.558 3.999 14.667 3.999v0C8.776 3.999 4 8.775 4 14.666s4.776 10.667 10.667 10.667v0zM28 28l-5.8-5.8"/></symbol><symbol id="icon-eye" viewBox="0 0 32 32"><path d="M16 6C9.021 6 2.972 10.064 0 16c2.972 5.936 9.021 10 16 10s13.027-4.064 16-10c-2.972-5.936-9.021-10-16-10zm7.889 5.303A15.212 15.212 0 0 1 28.559 16a15.223 15.223 0 0 1-4.67 4.697C21.527 22.204 18.799 23 16 23s-5.527-.796-7.889-2.303A15.212 15.212 0 0 1 3.441 16a15.223 15.223 0 0 1 5.041-4.925 8 8 0 1 0 15.036 0c.124.074.248.15.371.228zM16 13a3 3 0 1 1-6 0 3 3 0 0 1 6 0z"/></symbol><symbol id="icon-eye-blocked" viewBox="0 0 32 32"><path d="M29.561.439a1.5 1.5 0 0 0-2.121 0l-6.318 6.318A17.626 17.626 0 0 0 16 6C9.021 6 2.972 10.064 0 16a18.323 18.323 0 0 0 5.407 6.472L.439 27.44a1.5 1.5 0 1 0 2.122 2.121l27-27a1.5 1.5 0 0 0 0-2.121zM13 10a3 3 0 0 1 2.841 2.037l-3.804 3.804A3 3 0 0 1 13 10zm-9.559 6a15.223 15.223 0 0 1 5.041-4.925A7.985 7.985 0 0 0 8 13.812c0 1.715.54 3.304 1.459 4.607l-1.904 1.904A15.219 15.219 0 0 1 3.441 16zM24 13.813c0-.849-.133-1.667-.378-2.434L13.566 21.435a8 8 0 0 0 10.435-7.622z"/><path d="M25.938 9.062 23.77 11.23l.118.074a15.212 15.212 0 0 1 4.67 4.697 15.223 15.223 0 0 1-4.67 4.697 14.642 14.642 0 0 1-11.45 1.864l-2.403 2.403a17.587 17.587 0 0 0 5.964 1.036c6.978 0 13.027-4.064 16-10a18.292 18.292 0 0 0-6.062-6.938z"/></symbol><symbol id="icon-google" viewBox="0 0 32 32"><path fill="#ffc107" style="fill:var(--color1,#ffc107)" d="M29.074 13.389H28v-.055H16v5.333h7.535C22.436 21.772 19.482 24 16 24a8 8 0 0 1 0-16c2.039 0 3.895.769 5.307 2.026l3.771-3.771a13.274 13.274 0 0 0-9.079-3.588C8.636 2.667 2.666 8.637 2.666 16s5.97 13.333 13.333 13.333S29.332 23.363 29.332 16c0-.894-.092-1.767-.259-2.611z"/><path fill="#ff3d00" style="fill:var(--color2,#ff3d00)" d="m4.204 9.794 4.381 3.213A7.996 7.996 0 0 1 16 8c2.039 0 3.895.769 5.307 2.026l3.771-3.771a13.274 13.274 0 0 0-9.079-3.588c-5.121 0-9.563 2.891-11.796 7.127z"/><path fill="#4caf50" style="fill:var(--color3,#4caf50)" d="M16 29.333c3.444 0 6.573-1.318 8.939-3.461l-4.127-3.492A7.942 7.942 0 0 1 15.999 24c-3.468 0-6.413-2.211-7.522-5.297l-4.348 3.35c2.207 4.318 6.688 7.281 11.87 7.281z"/><path fill="#1976d2" style="fill:var(--color4,#1976d2)" d="M29.074 13.389H28v-.055H16v5.333h7.535a8.026 8.026 0 0 1-2.725 3.714l.002-.001 4.127 3.492c-.292.265 4.394-3.205 4.394-9.871 0-.894-.092-1.767-.259-2.611z"/></symbol><symbol id="icon-spinner" viewBox="0 0 32 32"><path fill="#b40e1c" style="fill:var(--color1,#b40e1c)" d="m5.178 11.14-1.63-1.482s-.067-.738.51-.973c.657-.268 1.29.047 1.29.047l.998 1.92-1.168.488zM26.675 11.19l-1.41-1.117.948-1.385s.49-.398 1.337.025c.648.322.808.947.733 1.14-.073.193-1.607 1.338-1.607 1.338z"/><path fill="#ffb91f" style="fill:var(--color2,#ffb91f)" d="m5.688 10.873-.787-.213s-.09-.373.08-.703c.178-.342.525-.305.525-.305s-.838-.408-.473-1.405 1.482-.777 1.482-.777-.025-.633.487-1.022c.51-.39.9-.098.9-.098s-.395-1.263.583-1.848c.835-.5 1.41-.025 1.41-.025s.338-.845 1.262-.862c.693-.013.902.255.902.255s.242-.487.633-.705c.39-.22.623-.188.623-.188s-.178-.605.01-1.1c.33-.875 1.24-1.07 1.92-.9.933.233.817.878.817.878s.473-.317.91-.268c.438.048.668.337.668.337s.305-.895 1.325-.895c1.023 0 1.313.607 1.363 1.07s-.258 1.008-.258 1.008.148.058.192.407c.035.265-.067.5-.067.5s.47-.37 1.407 0c1.555.612 1.23 2.268 1.23 2.268s.45-.053.79.093c.39.168.57.442.57.442s.087-.725.997-.73c.95-.005 1.727 1.775 1.558 2.285s-.633.633-.633.633.422.12.58.633c.188.605.032 1.248.032 1.248s-6.595 4.025-6.668 4-8.245.607-8.245.607l-6.128-4.62z"/><path fill="#fce193" style="fill:var(--color3,#fce193)" d="M8.71 12.117c0-.053.075-.27.223-.365.182-.117.455-.13.455-.13s-.3-.143-.467-.613c-.11-.305.025-.635.025-.635s-.793.037-.975-.563.105-.678.105-.678-.317-1.702 1.015-1.732c1.822-.04 1.51 2.277 1.51 2.277s.26 0 .418.143c.155.143.207.287.207.287s.34-.512 1.145-.39c1.9.287 1.015 2.147 1.015 2.147s-.352-.963-.963-1.002c-.613-.04-1.367.377-1.367.377s1.158.143 1.47.755.287 1.445.287 1.445-2.317.678-2.37.6c-.055-.075-1.732-1.925-1.732-1.925z"/><path fill="#e17a2c" style="fill:var(--color4,#e17a2c)" d="M10.152 10.088c-.168-.072-.637.34-.648.647s.25.7.56.727c.307.027.615-.29.615-.598 0-.155-.32-.688-.527-.777z"/><path fill="#fce193" style="fill:var(--color3,#fce193)" d="M11.568 6.638s-1.248-.18-1.223.85c.033 1.365 1.57 1.163 1.582 1.235s.075.537.075.537.607-.07 1.195.277.84.755.84.755.12-.563.287-.803c.168-.24.348-.42.348-.42s0-.3-.085-.54c-.06-.172-.203-.262-.203-.262s1.35-.64.67-1.702c-.768-1.197-1.99-.085-1.99-.085s-.48-.695-1.078-.527c-.6.168-.42.685-.42.685zM14.635 11.13s-.36-1.235.313-1.582 1.115.047 1.138-.025 1.067-1.188 1.965-1.162c1.33.035 1.635.88 1.665.97.148.43-.047 1.127-.047 1.127s.503-.78 1.223-.707c.72.072.8.647.8.647s.795.492.758.96c-.035.467-.54.815-.54.815l-1.223 1.197-1.317-.455s-.18-.6-.18-.97c0-.373.035-.67.035-.67s-.36.193-.61.262c-.253.072-.78.085-.78.085s-.02-.303-.527-.647c-1.113-.755-2.67.155-2.67.155z"/><path fill="#fce193" style="fill:var(--color3,#fce193)" d="M15.162 12.795s-.408-1.48.768-1.51c1.402-.035 1.605 1.21 1.655 1.905.047.695-1.81 1.762-1.883 1.725-.072-.035-1.813-1.105-1.813-1.105s-.133-.385.16-.727c.305-.363 1.113-.287 1.113-.287zM22.965 12.113s-.407-.335-.288-.97.61-.67.61-.67-.372-.575-.192-.947.468-.455 1.39-.443 1.39.262 1.69.588c.27.29.095 1.175.095 1.175s-1.365 1.643-1.523 1.605c-.155-.037-1.782-.338-1.782-.338zM19.14 7.835s.48.3.635.528c.155.227.36.66.36.66s.1-1.17.582-1.74c.527-.623 1.215-.598 1.227-.598.13 0 .348-.97-.155-1.485-.63-.645-1.712-.42-1.703-.322s.395.563.145 1.643c-.233.985-1.093 1.315-1.093 1.315zM15.785 8.063c.193.098.535-.225.828-.36.335-.155.767-.215.78-.383s-.468-.768-1.163-.433c-.695.335-.66 1.067-.445 1.175zM5.455 8.643c-.06.61.563.8.563.8s-.077.563.145.887c.18.262.553.588.707.553s.647-.502.647-.54c0-.035-.027-1.377-.313-1.857-.395-.675-1.643-.925-1.75.158zM7.638 7.835c.168 0 .335-.383.433-.527.095-.145.455-.383.455-.383s-.553-.383-.9-.035c-.348.345-.24.945.013.945zM8.977 6.745s.335-.035.527-.025c.193.013.515.072.515.072s.047-.313.395-.54c.348-.228.67-.155.67-.155s.072-.433.348-.622c.275-.192.443-.192.443-.192s.255-.655-.12-.9c-1.068-.695-1.615.7-1.797.73-.135.022-.605-.445-1.12-.085-.875.615.14 1.718.14 1.718zM12.357 5.175s.287.072.502.202.54.36.54.36l1.582-.048s.348-.455.85-.66c.41-.168.888-.18.888-.18s.045-1.17-.922-1.475c-1.223-.382-1.63.863-1.63.863s-.36-.405-.78-.395c-.932.025-1.03 1.333-1.03 1.333z"/><path fill="#e17a2c" style="fill:var(--color4,#e17a2c)" d="M14.143 4.755c-.145 0-.995.73-1.018.803-.025.072.203.192.227.263.025.072 1.558-.095 1.643-.155.082-.06-.527-.91-.853-.91zM12.227 7.223c.008.143.707 1.078.922 1.115s.925-.755.72-.935c-.095-.085-.803.013-.803.013s-.012-.527-.072-.61c-.063-.085-.78.18-.768.418z"/><path fill="#fce193" style="fill:var(--color3,#fce193)" d="M13.965 3.125c.182.005.348-.67.563-.888s.73-.433.61-.768-1.043-.24-1.342.252c-.332.547-.227 1.39.17 1.403zM16.517 2.945c.038.165.503.36.575.442.073.085.407.382.407.382s.767-.192 1.223-.072c.455.12.67.442.802.36.133-.085.06-.442-.012-.563s-.215-.348-.215-.348.69-1.07-.025-1.248c-1.018-.252-1.223.78-1.355.802s-.515-.382-.935-.322c-.418.063-.515.35-.465.565zM17.093 6.025c.17.378.707.407.707.407s.262.84.802.91c.54.072.895-.49 1.008-.958.145-.6.148-1.897-1.188-1.883-1.008.013-1.438 1.282-1.33 1.522zM22.387 10.303c.168-.005.055-.99.585-1.39.573-.432 1.02-.352 1.607-.313.61.04 1.023.23 1.15.06.16-.21.258-1.675-.575-1.798-.492-.072-.622.407-.622.407s-.503-.107-.78.395c-.19.348-.203.575-.288.6-.038.01-1.323-1.975-2.325-.768-1.043 1.258.863 2.3.863 2.3s.063.518.385.505z"/><path fill="#e17a2c" style="fill:var(--color4,#e17a2c)" d="M18.59 4.72c-.067.045-.095 1.21-.035 1.223s.815.42.922.313c.108-.107.108-.66-.085-1.018-.12-.23-.563-.675-.802-.518zM16.995 3.257c-.01.123.155.767.348.79.32.04.91-.3.97-.42s-.047-.468-.527-.587c-.475-.118-.777.05-.79.217zM17.115 10.555c.168.18.747-.31.957-.215.24.107 0 .73.262.803s.79-.78.73-1.15c-.025-.155-.335-.36-.67-.48s-.79-.203-.995-.072-.585.793-.285 1.115zM24.125 11.418s-.025-.768.18-1.15c.203-.383.72-.322.802-.227s.372.79.372.79l-.61 1.043-.745-.455z"/><path fill="#dfdfdf" style="fill:var(--color5,#dfdfdf)" d="m15.838 15.338-2.39-.935-.068-.105c-.12-.188-1.695-.44-1.695-.44l-.14-.027-1.963-.422-.055-.095c-.123-.207-1.702-.77-1.702-.77l-1.485-.6-.04-.098c-.133-.318-1.138-.867-1.16-.822l-.447-.223c.117-.238.49-.63 1.055-.402.492.197 1.055.88 1.178 1.15l.808.418c.197-.125.57-.25 1.08-.072.74.26.935.832 1.088 1.07l1.625.35c.172-.14.537-.375 1.025-.295.853.14 1.06.633 1.238.883l1.873.16c.188-.258.665-.803 1.407-.905.695-.098 1.203.143 1.407.383l1.79-.603c.15-.232.668-.89 1.477-1.037.755-.137 1.348.245 1.62.418l1.195-.613c.128-.215.54-.885 1.17-1.078.788-.238 1.293.26 1.315.277l-.337.37c-.01-.01-1.652.922-1.657.93l-.352.607-1.38.09-.125-.1a190.7 190.7 0 0 0-2.538.46l-.047.088-2.26.76-.11-.117c-.015-.015-2.398 1.348-2.398 1.348z"/><path fill="#fff" style="fill:var(--color6,#fff)" d="M26.93 11.645c-.058.005-.527-.655-1.14-.4-.613.258-1.198 1.31-1.198 1.31l-1.907.3s-.258-.52-.97-.32-1.352 1.075-1.367 1.018-2.1.475-2.1.475-.413-.46-1.148-.277c-.76.19-1.172 1.123-1.172 1.123l-2.367-.47s-.405-.68-1.018-.765c-.613-.085-1.01.315-1.01.315l-1.768-.43s-.27-.74-1.04-.998-1.14.07-1.14.07l-1.145-.777s-.338-.555-.98-.855c-.64-.3-.825.225-.825.225l3.99 16.788 7.64 3.108 7.543-3.303c.005.003 3.295-16.152 3.122-16.135z"/><path fill="#ed3d23" style="fill:var(--color7,#ed3d23)" d="m5.178 11.14-.005-.018c-.07-.328-.253-1.07-.685-1.408-.563-.438-.94-.06-.94-.06l4.338 18.045 1.06.405-3.768-16.965zM7.99 12.495s-.067-1.127-.957-1.395c-.707-.213-.737.515-.737.515l3.517 16.847 1.342.54L7.99 12.494zM11.765 13.797s-.363-1.213-1.285-1.315c-.922-.102-.83.672-.83.672l2.388 16.215 1.342.545-1.615-16.117zM14.697 13.455c-1.012-.127-1.152.89-1.152.89l1.047 16.065 1.68.675-.3-16.295s-.213-1.2-1.275-1.335zM20.51 13.518s.052-1.275-1.087-.953c-1.14.32-1.265 1.387-1.265 1.387l-.285 16.438 1.415-.628 1.223-16.245zM24.738 12.15s-.047-1-1.025-.797c-1.025.21-1.035 1.242-1.035 1.242l-1.797 16.483 1.365-.602 2.492-16.325zM27.348 9.755c-.84.402-.913 1.482-.913 1.482l-2.863 16.655 1.343-.595 3.378-17.46c-.003 0-.21-.435-.945-.082z"/></symbol><symbol id="icon-cheveron-up" viewBox="0 0 20 20"><path d="M10.707 7.05 10 6.343 4.343 12l1.414 1.414L10 9.172l4.243 4.242L15.657 12z"/></symbol></defs></svg>