<svg aria-hidden="true" style="position: absolute; width: 0; height: 0; overflow: hidden;" version="1.1" xmlns="http://www.w3.org/2000/svg" xmlns:xlink="http://www.w3.org/1999/xlink">
<defs>
<symbol id="icon-arrow-left" viewBox="0 0 32 32">
<path stroke-linejoin="round" stroke-linecap="round" stroke-miterlimit="4" stroke-width="2.6667" d="M25.333 16h-18.667"></path>
<path stroke-linejoin="round" stroke-linecap="round" stroke-miterlimit="4" stroke-width="2.6667" d="M16 25.334l-9.333-9.333 9.333-9.333"></path>
</symbol>
<symbol id="icon-arrow-right" viewBox="0 0 32 32">
<path stroke-linejoin="round" stroke-linecap="round" stroke-miterlimit="4" stroke-width="2.6667" d="M6.667 16h18.667"></path>
<path stroke-linejoin="round" stroke-linecap="round" stroke-miterlimit="4" stroke-width="2.6667" d="M16 25.334l9.333-9.333-9.333-9.333"></path>
</symbol>
<symbol id="icon-close" viewBox="0 0 32 32">
<path stroke-linejoin="miter" stroke-linecap="butt" stroke-miterlimit="4" stroke-width="2.1333" d="M8.533 8.533l14.933 14.933"></path>
<path stroke-linejoin="miter" stroke-linecap="butt" stroke-miterlimit="4" stroke-width="2.1333" d="M8.533 23.467l14.933-14.933"></path>
</symbol>
<symbol id="icon-heart" viewBox="0 0 32 32">
<path fill="#ff6b08" style="fill: var(--color1, #ff6b08)" d="M16 30.583l-2.24-2.24c-8.32-7.36-13.76-12.32-13.76-18.4 0-4.96 3.84-8.8 8.8-8.8 2.72 0 5.44 1.28 7.2 3.36 1.76-2.080 4.48-3.36 7.2-3.36 4.96 0 8.8 3.84 8.8 8.8 0 6.080-5.44 11.040-13.76 18.4l-2.24 2.24z"></path>
</symbol>
<symbol id="icon-logo" viewBox="0 0 32 32">
<path fill="none" style="stroke: currentColor" stroke-linejoin="round" stroke-linecap="round" stroke-miterlimit="4" stroke-width="2.6667" d="M26.427 2.667h-20.853c-1.605 0-2.907 1.301-2.907 2.907v0 20.853c0 1.605 1.301 2.907 2.907 2.907v0h20.853c1.605 0 2.907-1.301 2.907-2.907v0-20.853c0-1.605-1.301-2.907-2.907-2.907v0zM9.333 2.667v26.667M22.667 2.667v26.667M2.667 16h26.667M2.667 9.333h6.667M2.667 22.667h6.667M22.667 22.667h6.667M22.667 9.333h6.667"></path>
</symbol>
<symbol id="icon-search" viewBox="0 0 28 28">
<path fill="none" style="stroke: currentColor" stroke-linejoin="round" stroke-linecap="round" stroke-miterlimit="4" stroke-width="2.6667" d="M14.667 25.333c5.891 0 10.667-4.776 10.667-10.667s-4.776-10.667-10.667-10.667v0c-5.891 0-10.667 4.776-10.667 10.667s4.776 10.667 10.667 10.667v0zM28 28l-5.8-5.8"></path>
</symbol>
<symbol id="icon-eye" viewBox="0 0 32 32">
<path d="M16 6c-6.979 0-13.028 4.064-16 10 2.972 5.936 9.021 10 16 10s13.027-4.064 16-10c-2.972-5.936-9.021-10-16-10zM23.889 11.303c1.88 1.199 3.473 2.805 4.67 4.697-1.197 1.891-2.79 3.498-4.67 4.697-2.362 1.507-5.090 2.303-7.889 2.303s-5.527-0.796-7.889-2.303c-1.88-1.199-3.473-2.805-4.67-4.697 1.197-1.891 2.79-3.498 4.67-4.697 0.122-0.078 0.246-0.154 0.371-0.228-0.311 0.854-0.482 1.776-0.482 2.737 0 4.418 3.582 8 8 8s8-3.582 8-8c0-0.962-0.17-1.883-0.482-2.737 0.124 0.074 0.248 0.15 0.371 0.228v0zM16 13c0 1.657-1.343 3-3 3s-3-1.343-3-3 1.343-3 3-3 3 1.343 3 3z"></path>
</symbol>
<symbol id="icon-eye-blocked" viewBox="0 0 32 32">
<path d="M29.561 0.439c-0.586-0.586-1.535-0.586-2.121 0l-6.318 6.318c-1.623-0.492-3.342-0.757-5.122-0.757-6.979 0-13.028 4.064-16 10 1.285 2.566 3.145 4.782 5.407 6.472l-4.968 4.968c-0.586 0.586-0.586 1.535 0 2.121 0.293 0.293 0.677 0.439 1.061 0.439s0.768-0.146 1.061-0.439l27-27c0.586-0.586 0.586-1.536 0-2.121zM13 10c1.32 0 2.44 0.853 2.841 2.037l-3.804 3.804c-1.184-0.401-2.037-1.521-2.037-2.841 0-1.657 1.343-3 3-3zM3.441 16c1.197-1.891 2.79-3.498 4.67-4.697 0.122-0.078 0.246-0.154 0.371-0.228-0.311 0.854-0.482 1.776-0.482 2.737 0 1.715 0.54 3.304 1.459 4.607l-1.904 1.904c-1.639-1.151-3.038-2.621-4.114-4.323z"></path>
<path d="M24 13.813c0-0.849-0.133-1.667-0.378-2.434l-10.056 10.056c0.768 0.245 1.586 0.378 2.435 0.378 4.418 0 8-3.582 8-8z"></path>
<path d="M25.938 9.062l-2.168 2.168c0.040 0.025 0.079 0.049 0.118 0.074 1.88 1.199 3.473 2.805 4.67 4.697-1.197 1.891-2.79 3.498-4.67 4.697-2.362 1.507-5.090 2.303-7.889 2.303-1.208 0-2.403-0.149-3.561-0.439l-2.403 2.403c1.866 0.671 3.873 1.036 5.964 1.036 6.978 0 13.027-4.064 16-10-1.407-2.81-3.504-5.2-6.062-6.938z"></path>
</symbol>
<symbol id="icon-google" viewBox="0 0 32 32">
<path fill="#ffc107" style="fill: var(--color1, #ffc107)" d="M29.074 13.389h-1.074v-0.055h-12v5.333h7.535c-1.099 3.105-4.053 5.333-7.535 5.333-4.418 0-8-3.582-8-8s3.582-8 8-8c2.039 0 3.895 0.769 5.307 2.026l3.771-3.771c-2.381-2.219-5.567-3.588-9.079-3.588-7.363 0-13.333 5.97-13.333 13.333s5.97 13.333 13.333 13.333c7.363 0 13.333-5.97 13.333-13.333 0-0.894-0.092-1.767-0.259-2.611z"></path>
<path fill="#ff3d00" style="fill: var(--color2, #ff3d00)" d="M4.204 9.794l4.381 3.213c1.185-2.935 4.056-5.007 7.415-5.007 2.039 0 3.895 0.769 5.307 2.026l3.771-3.771c-2.381-2.219-5.567-3.588-9.079-3.588-5.121 0-9.563 2.891-11.796 7.127z"></path>
<path fill="#4caf50" style="fill: var(--color3, #4caf50)" d="M16 29.333c3.444 0 6.573-1.318 8.939-3.461l-4.127-3.492c-1.339 1.014-3.003 1.62-4.813 1.62-3.468 0-6.413-2.211-7.522-5.297l-4.348 3.35c2.207 4.318 6.688 7.281 11.87 7.281z"></path>
<path fill="#1976d2" style="fill: var(--color4, #1976d2)" d="M29.074 13.389h-1.074v-0.055h-12v5.333h7.535c-0.528 1.491-1.487 2.777-2.725 3.714 0.001-0.001 0.001-0.001 0.002-0.001l4.127 3.492c-0.292 0.265 4.394-3.205 4.394-9.871 0-0.894-0.092-1.767-0.259-2.611z"></path>
</symbol>
<symbol id="icon-spinner" viewBox="0 0 32 32">
<path fill="#b40e1c" style="fill: var(--color1, #b40e1c)" d="M5.178 11.14l-1.63-1.482s-0.067-0.738 0.51-0.973c0.657-0.268 1.29 0.047 1.29 0.047l0.998 1.92-1.168 0.488z"></path>
<path fill="#b40e1c" style="fill: var(--color1, #b40e1c)" d="M26.675 11.19l-1.41-1.117 0.948-1.385s0.49-0.398 1.337 0.025c0.648 0.322 0.808 0.947 0.733 1.14-0.073 0.193-1.607 1.338-1.607 1.338z"></path>
<path fill="#ffb91f" style="fill: var(--color2, #ffb91f)" d="M5.688 10.873l-0.787-0.213s-0.090-0.373 0.080-0.703c0.178-0.342 0.525-0.305 0.525-0.305s-0.838-0.408-0.473-1.405 1.482-0.777 1.482-0.777-0.025-0.633 0.487-1.022c0.51-0.39 0.9-0.098 0.9-0.098s-0.395-1.263 0.583-1.848c0.835-0.5 1.41-0.025 1.41-0.025s0.338-0.845 1.262-0.862c0.693-0.013 0.902 0.255 0.902 0.255s0.242-0.487 0.633-0.705c0.39-0.22 0.623-0.188 0.623-0.188s-0.178-0.605 0.010-1.1c0.33-0.875 1.24-1.070 1.92-0.9 0.933 0.233 0.817 0.878 0.817 0.878s0.473-0.317 0.91-0.268c0.438 0.048 0.668 0.337 0.668 0.337s0.305-0.895 1.325-0.895c1.023 0 1.313 0.607 1.363 1.070s-0.258 1.008-0.258 1.008 0.148 0.058 0.192 0.407c0.035 0.265-0.067 0.5-0.067 0.5s0.47-0.37 1.407 0c1.555 0.612 1.23 2.268 1.23 2.268s0.45-0.053 0.79 0.093c0.39 0.168 0.57 0.442 0.57 0.442s0.087-0.725 0.997-0.73c0.95-0.005 1.727 1.775 1.558 2.285s-0.633 0.633-0.633 0.633 0.422 0.12 0.58 0.633c0.188 0.605 0.032 1.248 0.032 1.248s-6.595 4.025-6.668 4-8.245 0.607-8.245 0.607l-6.128-4.62z"></path>
<path fill="#fce193" style="fill: var(--color3, #fce193)" d="M8.71 12.117c0-0.053 0.075-0.27 0.223-0.365 0.182-0.117 0.455-0.13 0.455-0.13s-0.3-0.143-0.467-0.613c-0.11-0.305 0.025-0.635 0.025-0.635s-0.793 0.037-0.975-0.563 0.105-0.678 0.105-0.678-0.317-1.702 1.015-1.732c1.822-0.040 1.51 2.277 1.51 2.277s0.26 0 0.418 0.143c0.155 0.143 0.207 0.287 0.207 0.287s0.34-0.512 1.145-0.39c1.9 0.287 1.015 2.147 1.015 2.147s-0.352-0.963-0.963-1.002c-0.613-0.040-1.367 0.377-1.367 0.377s1.158 0.143 1.47 0.755 0.287 1.445 0.287 1.445-2.317 0.678-2.37 0.6c-0.055-0.075-1.732-1.925-1.732-1.925z"></path>
<path fill="#e17a2c" style="fill: var(--color4, #e17a2c)" d="M10.152 10.088c-0.168-0.072-0.637 0.34-0.648 0.647s0.25 0.7 0.56 0.727c0.307 0.027 0.615-0.29 0.615-0.598 0-0.155-0.32-0.688-0.527-0.777z"></path>
<path fill="#fce193" style="fill: var(--color3, #fce193)" d="M11.568 6.638s-1.248-0.18-1.223 0.85c0.033 1.365 1.57 1.163 1.582 1.235s0.075 0.537 0.075 0.537 0.607-0.070 1.195 0.277 0.84 0.755 0.84 0.755 0.12-0.563 0.287-0.803c0.168-0.24 0.348-0.42 0.348-0.42s0-0.3-0.085-0.54c-0.060-0.172-0.203-0.262-0.203-0.262s1.35-0.64 0.67-1.702c-0.768-1.197-1.99-0.085-1.99-0.085s-0.48-0.695-1.078-0.527c-0.6 0.168-0.42 0.685-0.42 0.685z"></path>
<path fill="#fce193" style="fill: var(--color3, #fce193)" d="M14.635 11.13s-0.36-1.235 0.313-1.582 1.115 0.047 1.138-0.025 1.067-1.188 1.965-1.162c1.33 0.035 1.635 0.88 1.665 0.97 0.148 0.43-0.047 1.127-0.047 1.127s0.503-0.78 1.223-0.707c0.72 0.072 0.8 0.647 0.8 0.647s0.795 0.492 0.758 0.96c-0.035 0.467-0.54 0.815-0.54 0.815l-1.223 1.197-1.317-0.455s-0.18-0.6-0.18-0.97c0-0.373 0.035-0.67 0.035-0.67s-0.36 0.193-0.61 0.262c-0.253 0.072-0.78 0.085-0.78 0.085s-0.020-0.303-0.527-0.647c-1.113-0.755-2.67 0.155-2.67 0.155z"></path>
<path fill="#fce193" style="fill: var(--color3, #fce193)" d="M15.162 12.795s-0.408-1.48 0.768-1.51c1.402-0.035 1.605 1.21 1.655 1.905 0.047 0.695-1.81 1.762-1.883 1.725-0.072-0.035-1.813-1.105-1.813-1.105s-0.133-0.385 0.16-0.727c0.305-0.363 1.113-0.287 1.113-0.287z"></path>
<path fill="#fce193" style="fill: var(--color3, #fce193)" d="M22.965 12.113s-0.407-0.335-0.288-0.97 0.61-0.67 0.61-0.67-0.372-0.575-0.192-0.947 0.468-0.455 1.39-0.443 1.39 0.262 1.69 0.588c0.27 0.29 0.095 1.175 0.095 1.175s-1.365 1.643-1.523 1.605c-0.155-0.037-1.782-0.338-1.782-0.338z"></path>
<path fill="#fce193" style="fill: var(--color3, #fce193)" d="M19.14 7.835s0.48 0.3 0.635 0.528c0.155 0.227 0.36 0.66 0.36 0.66s0.1-1.17 0.582-1.74c0.527-0.623 1.215-0.598 1.227-0.598 0.13 0 0.348-0.97-0.155-1.485-0.63-0.645-1.712-0.42-1.703-0.322s0.395 0.563 0.145 1.643c-0.233 0.985-1.093 1.315-1.093 1.315z"></path>
<path fill="#fce193" style="fill: var(--color3, #fce193)" d="M15.785 8.063c0.193 0.098 0.535-0.225 0.828-0.36 0.335-0.155 0.767-0.215 0.78-0.383s-0.468-0.768-1.163-0.433c-0.695 0.335-0.66 1.067-0.445 1.175z"></path>
<path fill="#fce193" style="fill: var(--color3, #fce193)" d="M5.455 8.643c-0.060 0.61 0.563 0.8 0.563 0.8s-0.077 0.563 0.145 0.887c0.18 0.262 0.553 0.588 0.707 0.553s0.647-0.502 0.647-0.54c0-0.035-0.027-1.377-0.313-1.857-0.395-0.675-1.643-0.925-1.75 0.158z"></path>
<path fill="#fce193" style="fill: var(--color3, #fce193)" d="M7.638 7.835c0.168 0 0.335-0.383 0.433-0.527 0.095-0.145 0.455-0.383 0.455-0.383s-0.553-0.383-0.9-0.035c-0.348 0.345-0.24 0.945 0.013 0.945z"></path>
<path fill="#fce193" style="fill: var(--color3, #fce193)" d="M8.977 6.745s0.335-0.035 0.527-0.025c0.193 0.013 0.515 0.072 0.515 0.072s0.047-0.313 0.395-0.54c0.348-0.228 0.67-0.155 0.67-0.155s0.072-0.433 0.348-0.622c0.275-0.192 0.443-0.192 0.443-0.192s0.255-0.655-0.12-0.9c-1.068-0.695-1.615 0.7-1.797 0.73-0.135 0.022-0.605-0.445-1.12-0.085-0.875 0.615 0.14 1.718 0.14 1.718z"></path>
<path fill="#fce193" style="fill: var(--color3, #fce193)" d="M12.357 5.175s0.287 0.072 0.502 0.202 0.54 0.36 0.54 0.36l1.582-0.048s0.348-0.455 0.85-0.66c0.41-0.168 0.888-0.18 0.888-0.18s0.045-1.17-0.922-1.475c-1.223-0.382-1.63 0.863-1.63 0.863s-0.36-0.405-0.78-0.395c-0.932 0.025-1.030 1.333-1.030 1.333z"></path>
<path fill="#e17a2c" style="fill: var(--color4, #e17a2c)" d="M14.143 4.755c-0.145 0-0.995 0.73-1.018 0.803-0.025 0.072 0.203 0.192 0.227 0.263 0.025 0.072 1.558-0.095 1.643-0.155 0.082-0.060-0.527-0.91-0.853-0.91z"></path>
<path fill="#e17a2c" style="fill: var(--color4, #e17a2c)" d="M12.227 7.223c0.008 0.143 0.707 1.078 0.922 1.115s0.925-0.755 0.72-0.935c-0.095-0.085-0.803 0.013-0.803 0.013s-0.012-0.527-0.072-0.61c-0.063-0.085-0.78 0.18-0.768 0.418z"></path>
<path fill="#fce193" style="fill: var(--color3, #fce193)" d="M13.965 3.125c0.182 0.005 0.348-0.67 0.563-0.888s0.73-0.433 0.61-0.768-1.043-0.24-1.342 0.252c-0.332 0.547-0.227 1.39 0.17 1.403z"></path>
<path fill="#fce193" style="fill: var(--color3, #fce193)" d="M16.517 2.945c0.038 0.165 0.503 0.36 0.575 0.442 0.073 0.085 0.407 0.382 0.407 0.382s0.767-0.192 1.223-0.072c0.455 0.12 0.67 0.442 0.802 0.36 0.133-0.085 0.060-0.442-0.012-0.563s-0.215-0.348-0.215-0.348 0.69-1.070-0.025-1.248c-1.018-0.252-1.223 0.78-1.355 0.802s-0.515-0.382-0.935-0.322c-0.418 0.063-0.515 0.35-0.465 0.565z"></path>
<path fill="#fce193" style="fill: var(--color3, #fce193)" d="M17.093 6.025c0.17 0.378 0.707 0.407 0.707 0.407s0.262 0.84 0.802 0.91c0.54 0.072 0.895-0.49 1.008-0.958 0.145-0.6 0.148-1.897-1.188-1.883-1.008 0.013-1.438 1.282-1.33 1.522z"></path>
<path fill="#fce193" style="fill: var(--color3, #fce193)" d="M22.387 10.303c0.168-0.005 0.055-0.99 0.585-1.39 0.573-0.432 1.020-0.352 1.607-0.313 0.61 0.040 1.023 0.23 1.15 0.060 0.16-0.21 0.258-1.675-0.575-1.798-0.492-0.072-0.622 0.407-0.622 0.407s-0.503-0.107-0.78 0.395c-0.19 0.348-0.203 0.575-0.288 0.6-0.038 0.010-1.323-1.975-2.325-0.768-1.043 1.258 0.863 2.3 0.863 2.3s0.063 0.518 0.385 0.505z"></path>
<path fill="#e17a2c" style="fill: var(--color4, #e17a2c)" d="M18.59 4.72c-0.067 0.045-0.095 1.21-0.035 1.223s0.815 0.42 0.922 0.313c0.108-0.107 0.108-0.66-0.085-1.018-0.12-0.23-0.563-0.675-0.802-0.518z"></path>
<path fill="#e17a2c" style="fill: var(--color4, #e17a2c)" d="M16.995 3.257c-0.010 0.123 0.155 0.767 0.348 0.79 0.32 0.040 0.91-0.3 0.97-0.42s-0.047-0.468-0.527-0.587c-0.475-0.118-0.777 0.050-0.79 0.217z"></path>
<path fill="#e17a2c" style="fill: var(--color4, #e17a2c)" d="M17.115 10.555c0.168 0.18 0.747-0.31 0.957-0.215 0.24 0.107 0 0.73 0.262 0.803s0.79-0.78 0.73-1.15c-0.025-0.155-0.335-0.36-0.67-0.48s-0.79-0.203-0.995-0.072-0.585 0.793-0.285 1.115z"></path>
<path fill="#e17a2c" style="fill: var(--color4, #e17a2c)" d="M24.125 11.418s-0.025-0.768 0.18-1.15c0.203-0.383 0.72-0.322 0.802-0.227s0.372 0.79 0.372 0.79l-0.61 1.043-0.745-0.455z"></path>
<path fill="#dfdfdf" style="fill: var(--color5, #dfdfdf)" d="M15.838 15.338l-2.39-0.935-0.068-0.105c-0.12-0.188-1.695-0.44-1.695-0.44l-0.14-0.027-1.963-0.422-0.055-0.095c-0.123-0.207-1.702-0.77-1.702-0.77l-1.485-0.6-0.040-0.098c-0.133-0.318-1.138-0.867-1.16-0.822l-0.447-0.223c0.117-0.238 0.49-0.63 1.055-0.402 0.492 0.197 1.055 0.88 1.178 1.15l0.808 0.418c0.197-0.125 0.57-0.25 1.080-0.072 0.74 0.26 0.935 0.832 1.088 1.070l1.625 0.35c0.172-0.14 0.537-0.375 1.025-0.295 0.853 0.14 1.060 0.633 1.238 0.883l1.873 0.16c0.188-0.258 0.665-0.803 1.407-0.905 0.695-0.098 1.203 0.143 1.407 0.383l1.79-0.603c0.15-0.232 0.668-0.89 1.477-1.037 0.755-0.137 1.348 0.245 1.62 0.418l1.195-0.613c0.128-0.215 0.54-0.885 1.17-1.078 0.788-0.238 1.293 0.26 1.315 0.277l-0.337 0.37c-0.010-0.010-1.652 0.922-1.657 0.93l-0.352 0.607-1.38 0.090-0.125-0.1c-0.005-0.005-2.532 0.453-2.538 0.46l-0.047 0.088-2.26 0.76-0.11-0.117c-0.015-0.015-2.398 1.348-2.398 1.348z"></path>
<path fill="#fff" style="fill: var(--color6, #fff)" d="M26.93 11.645c-0.058 0.005-0.527-0.655-1.14-0.4-0.613 0.258-1.198 1.31-1.198 1.31l-1.907 0.3s-0.258-0.52-0.97-0.32c-0.712 0.2-1.352 1.075-1.367 1.018s-2.1 0.475-2.1 0.475-0.413-0.46-1.148-0.277c-0.76 0.19-1.172 1.123-1.172 1.123l-2.367-0.47s-0.405-0.68-1.018-0.765c-0.613-0.085-1.010 0.315-1.010 0.315l-1.768-0.43s-0.27-0.74-1.040-0.998-1.14 0.070-1.14 0.070l-1.145-0.777s-0.338-0.555-0.98-0.855c-0.64-0.3-0.825 0.225-0.825 0.225l3.99 16.788 7.64 3.108 7.543-3.303c0.005 0.003 3.295-16.152 3.122-16.135z"></path>
<path fill="#ed3d23" style="fill: var(--color7, #ed3d23)" d="M5.178 11.14l-0.005-0.018c-0.070-0.328-0.253-1.070-0.685-1.408-0.563-0.438-0.94-0.060-0.94-0.060l4.338 18.045 1.060 0.405-3.768-16.965z"></path>
<path fill="#ed3d23" style="fill: var(--color7, #ed3d23)" d="M7.99 12.495s-0.067-1.127-0.957-1.395c-0.707-0.213-0.737 0.515-0.737 0.515l3.517 16.847 1.342 0.54-3.165-16.508z"></path>
<path fill="#ed3d23" style="fill: var(--color7, #ed3d23)" d="M11.765 13.797s-0.363-1.213-1.285-1.315c-0.922-0.102-0.83 0.672-0.83 0.672l2.388 16.215 1.342 0.545-1.615-16.117z"></path>
<path fill="#ed3d23" style="fill: var(--color7, #ed3d23)" d="M14.697 13.455c-1.012-0.127-1.152 0.89-1.152 0.89l1.047 16.065 1.68 0.675-0.3-16.295s-0.213-1.2-1.275-1.335z"></path>
<path fill="#ed3d23" style="fill: var(--color7, #ed3d23)" d="M20.51 13.518s0.052-1.275-1.087-0.953c-1.14 0.32-1.265 1.387-1.265 1.387l-0.285 16.438 1.415-0.628 1.223-16.245z"></path>
<path fill="#ed3d23" style="fill: var(--color7, #ed3d23)" d="M24.738 12.15s-0.047-1-1.025-0.797c-1.025 0.21-1.035 1.242-1.035 1.242l-1.797 16.483 1.365-0.602 2.492-16.325z"></path>
<path fill="#ed3d23" style="fill: var(--color7, #ed3d23)" d="M27.348 9.755c-0.84 0.402-0.913 1.482-0.913 1.482l-2.863 16.655 1.343-0.595 3.378-17.46c-0.003 0-0.21-0.435-0.945-0.082z"></path>
</symbol>
<symbol id="icon-cheveron-up" viewBox="0 0 20 20">
<path d="M10.707 7.050l-0.707-0.707-5.657 5.657 1.414 1.414 4.243-4.242 4.243 4.242 1.414-1.414z"></path>
</symbol>
</defs>
</svg>
