<svg aria-hidden="true" style="position: absolute; width: 0; height: 0; overflow: hidden;" version="1.1" xmlns="http://www.w3.org/2000/svg" xmlns:xlink="http://www.w3.org/1999/xlink">
<defs>
<symbol id="icon-arrow-left" viewBox="0 0 32 32">
<path stroke-linejoin="round" stroke-linecap="round" stroke-miterlimit="4" stroke-width="2.6667" d="M25.333 16h-18.667"></path>
<path stroke-linejoin="round" stroke-linecap="round" stroke-miterlimit="4" stroke-width="2.6667" d="M16 25.334l-9.333-9.333 9.333-9.333"></path>
</symbol>
<symbol id="icon-arrow-right" viewBox="0 0 32 32">
<path stroke-linejoin="round" stroke-linecap="round" stroke-miterlimit="4" stroke-width="2.6667" d="M6.667 16h18.667"></path>
<path stroke-linejoin="round" stroke-linecap="round" stroke-miterlimit="4" stroke-width="2.6667" d="M16 25.334l9.333-9.333-9.333-9.333"></path>
</symbol>
<symbol id="icon-close" viewBox="0 0 32 32">
<path stroke-linejoin="miter" stroke-linecap="butt" stroke-miterlimit="4" stroke-width="2.1333" d="M8.533 8.533l14.933 14.933"></path>
<path stroke-linejoin="miter" stroke-linecap="butt" stroke-miterlimit="4" stroke-width="2.1333" d="M8.533 23.467l14.933-14.933"></path>
</symbol>
<symbol id="icon-heart" viewBox="0 0 32 32">
<path fill="#ff6b08" style="fill: var(--color1, #ff6b08)" d="M16 30.583l-2.24-2.24c-8.32-7.36-13.76-12.32-13.76-18.4 0-4.96 3.84-8.8 8.8-8.8 2.72 0 5.44 1.28 7.2 3.36 1.76-2.080 4.48-3.36 7.2-3.36 4.96 0 8.8 3.84 8.8 8.8 0 6.080-5.44 11.040-13.76 18.4l-2.24 2.24z"></path>
</symbol>
<symbol id="icon-logo" viewBox="0 0 32 32">
<path fill="none" style="stroke: currentColor" stroke-linejoin="round" stroke-linecap="round" stroke-miterlimit="4" stroke-width="2.6667" d="M26.427 2.667h-20.853c-1.605 0-2.907 1.301-2.907 2.907v0 20.853c0 1.605 1.301 2.907 2.907 2.907v0h20.853c1.605 0 2.907-1.301 2.907-2.907v0-20.853c0-1.605-1.301-2.907-2.907-2.907v0zM9.333 2.667v26.667M22.667 2.667v26.667M2.667 16h26.667M2.667 9.333h6.667M2.667 22.667h6.667M22.667 22.667h6.667M22.667 9.333h6.667"></path>
</symbol>
<symbol id="icon-search" viewBox="0 0 28 28">
<path fill="none" style="stroke: currentColor" stroke-linejoin="round" stroke-linecap="round" stroke-miterlimit="4" stroke-width="2.6667" d="M14.667 25.333c5.891 0 10.667-4.776 10.667-10.667s-4.776-10.667-10.667-10.667v0c-5.891 0-10.667 4.776-10.667 10.667s4.776 10.667 10.667 10.667v0zM28 28l-5.8-5.8"></path>
</symbol>
<symbol id="icon-eye" viewBox="0 0 32 32">
<path d="M16 6c-6.979 0-13.028 4.064-16 10 2.972 5.936 9.021 10 16 10s13.027-4.064 16-10c-2.972-5.936-9.021-10-16-10zM23.889 11.303c1.88 1.199 3.473 2.805 4.67 4.697-1.197 1.891-2.79 3.498-4.67 4.697-2.362 1.507-5.090 2.303-7.889 2.303s-5.527-0.796-7.889-2.303c-1.88-1.199-3.473-2.805-4.67-4.697 1.197-1.891 2.79-3.498 4.67-4.697 0.122-0.078 0.246-0.154 0.371-0.228-0.311 0.854-0.482 1.776-0.482 2.737 0 4.418 3.582 8 8 8s8-3.582 8-8c0-0.962-0.17-1.883-0.482-2.737 0.124 0.074 0.248 0.15 0.371 0.228v0zM16 13c0 1.657-1.343 3-3 3s-3-1.343-3-3 1.343-3 3-3 3 1.343 3 3z"></path>
</symbol>
<symbol id="icon-eye-blocked" viewBox="0 0 32 32">
<path d="M29.561 0.439c-0.586-0.586-1.535-0.586-2.121 0l-6.318 6.318c-1.623-0.492-3.342-0.757-5.122-0.757-6.979 0-13.028 4.064-16 10 1.285 2.566 3.145 4.782 5.407 6.472l-4.968 4.968c-0.586 0.586-0.586 1.535 0 2.121 0.293 0.293 0.677 0.439 1.061 0.439s0.768-0.146 1.061-0.439l27-27c0.586-0.586 0.586-1.536 0-2.121zM13 10c1.32 0 2.44 0.853 2.841 2.037l-3.804 3.804c-1.184-0.401-2.037-1.521-2.037-2.841 0-1.657 1.343-3 3-3zM3.441 16c1.197-1.891 2.79-3.498 4.67-4.697 0.122-0.078 0.246-0.154 0.371-0.228-0.311 0.854-0.482 1.776-0.482 2.737 0 1.715 0.54 3.304 1.459 4.607l-1.904 1.904c-1.639-1.151-3.038-2.621-4.114-4.323z"></path>
<path d="M24 13.813c0-0.849-0.133-1.667-0.378-2.434l-10.056 10.056c0.768 0.245 1.586 0.378 2.435 0.378 4.418 0 8-3.582 8-8z"></path>
<path d="M25.938 9.062l-2.168 2.168c0.040 0.025 0.079 0.049 0.118 0.074 1.88 1.199 3.473 2.805 4.67 4.697-1.197 1.891-2.79 3.498-4.67 4.697-2.362 1.507-5.090 2.303-7.889 2.303-1.208 0-2.403-0.149-3.561-0.439l-2.403 2.403c1.866 0.671 3.873 1.036 5.964 1.036 6.978 0 13.027-4.064 16-10-1.407-2.81-3.504-5.2-6.062-6.938z"></path>
</symbol>
<symbol id="icon-google" viewBox="0 0 32 32">
<path fill="#ffc107" style="fill: var(--color1, #ffc107)" d="M29.074 13.389h-1.074v-0.055h-12v5.333h7.535c-1.099 3.105-4.053 5.333-7.535 5.333-4.418 0-8-3.582-8-8s3.582-8 8-8c2.039 0 3.895 0.769 5.307 2.026l3.771-3.771c-2.381-2.219-5.567-3.588-9.079-3.588-7.363 0-13.333 5.97-13.333 13.333s5.97 13.333 13.333 13.333c7.363 0 13.333-5.97 13.333-13.333 0-0.894-0.092-1.767-0.259-2.611z"></path>
<path fill="#ff3d00" style="fill: var(--color2, #ff3d00)" d="M4.204 9.794l4.381 3.213c1.185-2.935 4.056-5.007 7.415-5.007 2.039 0 3.895 0.769 5.307 2.026l3.771-3.771c-2.381-2.219-5.567-3.588-9.079-3.588-5.121 0-9.563 2.891-11.796 7.127z"></path>
<path fill="#4caf50" style="fill: var(--color3, #4caf50)" d="M16 29.333c3.444 0 6.573-1.318 8.939-3.461l-4.127-3.492c-1.339 1.014-3.003 1.62-4.813 1.62-3.468 0-6.413-2.211-7.522-5.297l-4.348 3.35c2.207 4.318 6.688 7.281 11.87 7.281z"></path>
<path fill="#1976d2" style="fill: var(--color4, #1976d2)" d="M29.074 13.389h-1.074v-0.055h-12v5.333h7.535c-0.528 1.491-1.487 2.777-2.725 3.714 0.001-0.001 0.001-0.001 0.002-0.001l4.127 3.492c-0.292 0.265 4.394-3.205 4.394-9.871 0-0.894-0.092-1.767-0.259-2.611z"></path>
</symbol>
<symbol id="icon-spinner" viewBox="0 0 243.6 205">
            <path
                d="M132.7 190.5c-1.4 0-2.5-1.1-2.5-2.5s1.1-2.5 2.5-2.5c9.5 0 18.8-3.7 25.8-7 2.5-1.2 5.1-2.4 7.5-3.6 5.8-2.9 11.9-5.9 18.2-8 10.6-3.6 22-4.8 32.8-3.4 10.7 1.4 19.6 5.3 25.7 11.2 1 .9 1 2.5 0 3.5-.9 1-2.5 1-3.5 0-6.8-6.6-16.2-9-22.9-9.9-10.1-1.3-20.7-.2-30.6 3.1-6 2-11.9 4.9-17.6 7.8-2.5 1.2-5.1 2.5-7.6 3.7-7.4 3.6-17.3 7.6-27.8 7.6z" />
            <path
                d="M121.8 13.5c-49.2 0-89 39.8-89 89s39.8 89 89 89 89-39.8 89-89-39.8-89-89-89zm0 18.7c11 0 20 8.9 20 20 0 11-8.9 20-20 20s-20-8.9-20-20 9-20 20-20zM54.9 80.8C58.3 70.3 69.6 64.6 80.1 68c10.5 3.4 16.2 14.7 12.8 25.2-3.4 10.5-14.7 16.2-25.2 12.8-10.4-3.5-16.2-14.7-12.8-25.2zm53.5 74.2c-6.5 8.9-19 10.9-27.9 4.4-8.9-6.5-10.9-19-4.4-27.9 6.5-8.9 19-10.9 27.9-4.4 8.9 6.5 10.8 19 4.4 27.9zm13.4-42.1c-5.8 0-10.4-4.7-10.4-10.4 0-5.8 4.7-10.4 10.4-10.4 5.8 0 10.4 4.7 10.4 10.4 0 5.8-4.6 10.4-10.4 10.4zm41.3 46.5c-8.9 6.5-21.4 4.5-27.9-4.4s-4.5-21.4 4.4-27.9 21.4-4.5 27.9 4.4 4.6 21.4-4.4 27.9zm12.8-53.5c-10.5 3.4-21.8-2.3-25.2-12.8-3.4-10.5 2.3-21.8 12.8-25.2 10.5-3.4 21.8 2.3 25.2 12.8 3.4 10.6-2.3 21.8-12.8 25.2z" />
        </symbol>
</defs>
</svg>
