<svg aria-hidden="true" style="position: absolute; width: 0; height: 0; overflow: hidden;" version="1.1" xmlns="http://www.w3.org/2000/svg" xmlns:xlink="http://www.w3.org/1999/xlink">
<defs>
<symbol id="icon-arrow-left" viewBox="0 0 32 32">
<path stroke-linejoin="round" stroke-linecap="round" stroke-miterlimit="4" stroke-width="2.6667" d="M25.333 16h-18.667"></path>
<path stroke-linejoin="round" stroke-linecap="round" stroke-miterlimit="4" stroke-width="2.6667" d="M16 25.334l-9.333-9.333 9.333-9.333"></path>
</symbol>
<symbol id="icon-arrow-right" viewBox="0 0 32 32">
<path stroke-linejoin="round" stroke-linecap="round" stroke-miterlimit="4" stroke-width="2.6667" d="M6.667 16h18.667"></path>
<path stroke-linejoin="round" stroke-linecap="round" stroke-miterlimit="4" stroke-width="2.6667" d="M16 25.334l9.333-9.333-9.333-9.333"></path>
</symbol>
<symbol id="icon-close" viewBox="0 0 32 32">
<path stroke-linejoin="miter" stroke-linecap="butt" stroke-miterlimit="4" stroke-width="2.1333" d="M8.533 8.533l14.933 14.933"></path>
<path stroke-linejoin="miter" stroke-linecap="butt" stroke-miterlimit="4" stroke-width="2.1333" d="M8.533 23.467l14.933-14.933"></path>
</symbol>
<symbol id="icon-heart" viewBox="0 0 32 32">
<path fill="#ff6b08" style="fill: var(--color1, #ff6b08)" d="M16 30.583l-2.24-2.24c-8.32-7.36-13.76-12.32-13.76-18.4 0-4.96 3.84-8.8 8.8-8.8 2.72 0 5.44 1.28 7.2 3.36 1.76-2.080 4.48-3.36 7.2-3.36 4.96 0 8.8 3.84 8.8 8.8 0 6.080-5.44 11.040-13.76 18.4l-2.24 2.24z"></path>
</symbol>
<symbol id="icon-logo" viewBox="0 0 32 32">
<path fill="none" style="stroke: currentColor" stroke-linejoin="round" stroke-linecap="round" stroke-miterlimit="4" stroke-width="2.6667" d="M26.427 2.667h-20.853c-1.605 0-2.907 1.301-2.907 2.907v0 20.853c0 1.605 1.301 2.907 2.907 2.907v0h20.853c1.605 0 2.907-1.301 2.907-2.907v0-20.853c0-1.605-1.301-2.907-2.907-2.907v0zM9.333 2.667v26.667M22.667 2.667v26.667M2.667 16h26.667M2.667 9.333h6.667M2.667 22.667h6.667M22.667 22.667h6.667M22.667 9.333h6.667"></path>
</symbol>
<symbol id="icon-search" viewBox="0 0 28 28">
<path fill="none" style="stroke: currentColor" stroke-linejoin="round" stroke-linecap="round" stroke-miterlimit="4" stroke-width="2.6667" d="M14.667 25.333c5.891 0 10.667-4.776 10.667-10.667s-4.776-10.667-10.667-10.667v0c-5.891 0-10.667 4.776-10.667 10.667s4.776 10.667 10.667 10.667v0zM28 28l-5.8-5.8"></path>
</symbol>
<symbol id="icon-close" viewBox="0 0 32 32">
<path stroke-linejoin="miter" stroke-linecap="butt" stroke-miterlimit="4" stroke-width="2.1333" d="M8.533 8.533l14.933 14.933"></path>
<path stroke-linejoin="miter" stroke-linecap="butt" stroke-miterlimit="4" stroke-width="2.1333" d="M8.533 23.467l14.933-14.933"></path>
</symbol>
<symbol id="icon-spinner" viewBox="0 0 243.6 205">
            <path
                d="M132.7 190.5c-1.4 0-2.5-1.1-2.5-2.5s1.1-2.5 2.5-2.5c9.5 0 18.8-3.7 25.8-7 2.5-1.2 5.1-2.4 7.5-3.6 5.8-2.9 11.9-5.9 18.2-8 10.6-3.6 22-4.8 32.8-3.4 10.7 1.4 19.6 5.3 25.7 11.2 1 .9 1 2.5 0 3.5-.9 1-2.5 1-3.5 0-6.8-6.6-16.2-9-22.9-9.9-10.1-1.3-20.7-.2-30.6 3.1-6 2-11.9 4.9-17.6 7.8-2.5 1.2-5.1 2.5-7.6 3.7-7.4 3.6-17.3 7.6-27.8 7.6z" />
            <path
                d="M121.8 13.5c-49.2 0-89 39.8-89 89s39.8 89 89 89 89-39.8 89-89-39.8-89-89-89zm0 18.7c11 0 20 8.9 20 20 0 11-8.9 20-20 20s-20-8.9-20-20 9-20 20-20zM54.9 80.8C58.3 70.3 69.6 64.6 80.1 68c10.5 3.4 16.2 14.7 12.8 25.2-3.4 10.5-14.7 16.2-25.2 12.8-10.4-3.5-16.2-14.7-12.8-25.2zm53.5 74.2c-6.5 8.9-19 10.9-27.9 4.4-8.9-6.5-10.9-19-4.4-27.9 6.5-8.9 19-10.9 27.9-4.4 8.9 6.5 10.8 19 4.4 27.9zm13.4-42.1c-5.8 0-10.4-4.7-10.4-10.4 0-5.8 4.7-10.4 10.4-10.4 5.8 0 10.4 4.7 10.4 10.4 0 5.8-4.6 10.4-10.4 10.4zm41.3 46.5c-8.9 6.5-21.4 4.5-27.9-4.4s-4.5-21.4 4.4-27.9 21.4-4.5 27.9 4.4 4.6 21.4-4.4 27.9zm12.8-53.5c-10.5 3.4-21.8-2.3-25.2-12.8-3.4-10.5 2.3-21.8 12.8-25.2 10.5-3.4 21.8 2.3 25.2 12.8 3.4 10.6-2.3 21.8-12.8 25.2z" />
        </symbol>
</defs>
</svg>
